<svg aria-hidden="true" style="position: absolute; width: 0; height: 0; overflow: hidden;" version="1.1" xmlns="http://www.w3.org/2000/svg" xmlns:xlink="http://www.w3.org/1999/xlink">
<defs>
<symbol id="icon-circle-full" viewBox="0 0 32 32">
<path d="M32 16c0 8.837-7.163 16-16 16s-16-7.163-16-16c0-8.837 7.163-16 16-16s16 7.163 16 16z"></path>
<path d="M26.666 16c0 5.891-4.776 10.667-10.667 10.667s-10.667-4.776-10.667-10.667c0-5.891 4.776-10.667 10.667-10.667s10.667 4.776 10.667 10.667z"></path>
</symbol>
<symbol id="icon-heart-full" viewBox="0 0 32 32">
<path stroke-linejoin="round" stroke-linecap="round" stroke-miterlimit="4" stroke-width="2.4615" d="M27.787 6.147c-0.681-0.681-1.49-1.222-2.379-1.591s-1.844-0.559-2.807-0.559-1.917 0.19-2.807 0.559c-0.89 0.369-1.699 0.909-2.38 1.591l-1.413 1.413-1.413-1.413c-1.376-1.376-3.241-2.148-5.187-2.148s-3.811 0.773-5.187 2.148c-1.376 1.376-2.148 3.241-2.148 5.187s0.773 3.811 2.148 5.187l11.787 11.787 11.787-11.787c0.681-0.681 1.222-1.49 1.591-2.38s0.559-1.844 0.559-2.807-0.19-1.917-0.559-2.807c-0.369-0.89-0.909-1.699-1.591-2.38z"></path>
</symbol>
<symbol id="icon-clock" viewBox="0 0 32 32">
<path stroke-linejoin="round" stroke-linecap="round" stroke-miterlimit="4" stroke-width="2.4" d="M16 29.333c7.364 0 13.333-5.969 13.333-13.333s-5.97-13.333-13.333-13.333c-7.364 0-13.333 5.97-13.333 13.333s5.97 13.333 13.333 13.333z"></path>
<path stroke-linejoin="round" stroke-linecap="round" stroke-miterlimit="4" stroke-width="2.4" d="M16 8v8l5.333 2.667"></path>
</symbol>
<symbol id="icon-circle" viewBox="0 0 32 32">
<path d="M30.222 16c0 7.855-6.367 14.222-14.222 14.222s-14.222-6.367-14.222-14.222c0-7.855 6.367-14.222 14.222-14.222s14.222 6.367 14.222 14.222z"></path>
</symbol>
<symbol id="icon-question" viewBox="0 0 32 32">
<path d="M11.294 10c0-2.206 1.688-4 3.765-4h1.882c2.076 0 3.765 1.794 3.765 4v0.225c0 1.363-0.653 2.631-1.729 3.362l-2.482 1.694c-0.729 0.498-1.328 1.182-1.744 1.99s-0.633 1.714-0.633 2.635v0.094c0 1.106 0.841 2 1.882 2s1.882-0.894 1.882-2v-0.088c0-0.512 0.247-0.987 0.647-1.262l2.482-1.694c2.153-1.475 3.459-4.006 3.459-6.731v-0.225c0-4.419-3.371-8-7.529-8h-1.882c-4.159 0-7.529 3.581-7.529 8 0 1.106 0.841 2 1.882 2s1.882-0.894 1.882-2zM16 30c0.624 0 1.223-0.263 1.664-0.732s0.689-1.105 0.689-1.768c0-0.663-0.248-1.299-0.689-1.768s-1.040-0.732-1.664-0.732-1.223 0.263-1.664 0.732c-0.441 0.469-0.689 1.105-0.689 1.768s0.248 1.299 0.689 1.768 1.040 0.732 1.664 0.732z"></path>
</symbol>
<symbol id="icon-checkbox" viewBox="0 0 32 32">
<path d="M8 13.333l-2.667 2.667 8 8 13.333-13.333-2.667-2.667-10.667 10.667-5.333-5.333z"></path>
</symbol>
<symbol id="icon-arrow" viewBox="0 0 28 32">
<path fill="#fbfbfb" style="fill: var(--color2, #fbfbfb)" d="M0 29.589l3.199 2.411 21.696-28.791-3.199-2.411-21.695 28.791zM21.59 4.266l-13.883 1.951c-1.111 0.156-2.106-0.594-2.262-1.705s0.594-2.106 1.705-2.262l15.866-2.23c1.111-0.156 2.106 0.594 2.262 1.705l2.23 15.866c0.156 1.111-0.594 2.106-1.705 2.262s-2.106-0.594-2.262-1.705l-1.951-13.883z"></path>
</symbol>
<symbol id="icon-star" viewBox="0 0 32 32">
<path fill="#ffc531" style="fill: var(--color1, #ffc531); stroke: var(--color1, #ffc531)" stroke="#ffc531" stroke-linejoin="miter" stroke-linecap="butt" stroke-miterlimit="4" stroke-width="2.4" d="M12.4 9.394l3.6-6.822 3.6 6.822c0.318 0.603 0.899 1.025 1.571 1.141l7.601 1.315-5.376 5.532c-0.475 0.489-0.697 1.171-0.6 1.846l1.098 7.635-6.922-3.404c-0.612-0.301-1.329-0.301-1.941 0l-6.922 3.404 1.098-7.635c0.097-0.675-0.125-1.357-0.6-1.846l-5.376-5.532 7.601-1.315c0.672-0.116 1.252-0.538 1.571-1.141zM29.035 11.579v0zM7.767 27.031c0 0 0 0 0 0h-0z"></path>
</symbol>
<symbol id="icon-group" viewBox="0 0 32 32">
<path fill="#fbfbfb" style="fill: var(--color2, #fbfbfb)" d="M18.797 22.385l-0.564 2.103-14.722-3.945 0.564-2.103c0 0 1.127-4.206 8.488-2.234s6.234 6.179 6.234 6.179zM17.794 11.409c0.195-0.728 0.17-1.497-0.072-2.211s-0.691-1.339-1.289-1.798c-0.598-0.459-1.318-0.73-2.070-0.779s-1.502 0.126-2.154 0.502c-0.653 0.377-1.179 0.939-1.512 1.615s-0.459 1.435-0.36 2.183c0.098 0.747 0.416 1.448 0.913 2.015s1.151 0.973 1.879 1.168c0.976 0.262 2.016 0.125 2.891-0.381s1.514-1.338 1.775-2.314zM19.861 18.162c0.512 0.674 0.871 1.451 1.050 2.278s0.176 1.683-0.011 2.509l-0.564 2.103 4.206 1.127 0.564-2.103c0 0 1.023-3.817-5.245-5.914zM21.409 8.433c-0.723-0.198-1.489-0.171-2.196 0.077 0.4 1.064 0.456 2.226 0.162 3.323s-0.924 2.075-1.802 2.797c0.488 0.568 1.138 0.974 1.863 1.164 0.976 0.262 2.016 0.125 2.891-0.381s1.514-1.338 1.775-2.314c0.261-0.976 0.125-2.016-0.381-2.891s-1.338-1.514-2.314-1.775z"></path>
</symbol>
<symbol id="icon-crossed-eye" viewBox="0 0 32 32">
<path d="M29.561 0.439c-0.586-0.586-1.535-0.586-2.121 0l-6.318 6.318c-1.623-0.492-3.342-0.757-5.122-0.757-6.979 0-13.028 4.064-16 10 1.285 2.566 3.145 4.782 5.407 6.472l-4.968 4.968c-0.586 0.586-0.586 1.535 0 2.121 0.293 0.293 0.677 0.439 1.061 0.439s0.768-0.146 1.061-0.439l27-27c0.586-0.586 0.586-1.536 0-2.121zM13 10c1.32 0 2.44 0.853 2.841 2.037l-3.804 3.804c-1.184-0.401-2.037-1.521-2.037-2.841 0-1.657 1.343-3 3-3zM3.441 16c1.197-1.891 2.79-3.498 4.67-4.697 0.122-0.078 0.246-0.154 0.371-0.228-0.311 0.854-0.482 1.776-0.482 2.737 0 1.715 0.54 3.304 1.459 4.607l-1.904 1.904c-1.639-1.151-3.038-2.621-4.114-4.323z"></path>
<path d="M24 13.813c0-0.849-0.133-1.667-0.378-2.434l-10.056 10.056c0.768 0.245 1.586 0.378 2.435 0.378 4.418 0 8-3.582 8-8z"></path>
<path d="M25.938 9.062l-2.168 2.168c0.040 0.025 0.079 0.049 0.118 0.074 1.88 1.199 3.473 2.805 4.67 4.697-1.197 1.891-2.79 3.498-4.67 4.697-2.362 1.507-5.090 2.303-7.889 2.303-1.208 0-2.403-0.149-3.561-0.439l-2.403 2.403c1.866 0.671 3.873 1.036 5.964 1.036 6.978 0 13.027-4.064 16-10-1.407-2.81-3.504-5.2-6.062-6.938z"></path>
</symbol>
<symbol id="icon-cross" viewBox="0 0 32 32">
<path d="M31.708 25.708c-0-0-0-0-0-0l-9.708-9.708 9.708-9.708c0-0 0-0 0-0 0.105-0.105 0.18-0.227 0.229-0.357 0.133-0.356 0.057-0.771-0.229-1.057l-4.586-4.586c-0.286-0.286-0.702-0.361-1.057-0.229-0.13 0.048-0.252 0.124-0.357 0.228 0 0-0 0-0 0l-9.708 9.708-9.708-9.708c-0-0-0-0-0-0-0.105-0.104-0.227-0.18-0.357-0.228-0.356-0.133-0.771-0.057-1.057 0.229l-4.586 4.586c-0.286 0.286-0.361 0.702-0.229 1.057 0.049 0.13 0.124 0.252 0.229 0.357 0 0 0 0 0 0l9.708 9.708-9.708 9.708c-0 0-0 0-0 0-0.104 0.105-0.18 0.227-0.229 0.357-0.133 0.355-0.057 0.771 0.229 1.057l4.586 4.586c0.286 0.286 0.702 0.361 1.057 0.229 0.13-0.049 0.252-0.124 0.357-0.229 0-0 0-0 0-0l9.708-9.708 9.708 9.708c0 0 0 0 0 0 0.105 0.105 0.227 0.18 0.357 0.229 0.356 0.133 0.771 0.057 1.057-0.229l4.586-4.586c0.286-0.286 0.362-0.702 0.229-1.057-0.049-0.13-0.124-0.252-0.229-0.357z"></path>
</symbol>
</defs>
</svg>